<?xml version="1.0" standalone="no"?>
<!DOCTYPE svg PUBLIC "-//W3C//DTD SVG 20010904//EN"
 "http://www.w3.org/TR/2001/REC-SVG-20010904/DTD/svg10.dtd">
<svg version="1.0" xmlns="http://www.w3.org/2000/svg"
 width="250.000000pt" height="250.000000pt" viewBox="0 0 250.000000 250.000000"
 preserveAspectRatio="xMidYMid meet">
<metadata>
Created by potrace 1.11, written by Peter Selinger 2001-2013
</metadata>
<g transform="translate(0.000000,250.000000) scale(0.100000,-0.100000)"
fill="#000000" stroke="none">
<path d="M0 1250 l0 -1250 1250 0 1250 0 0 1250 0 1250 -1250 0 -1250 0 0
-1250z m942 490 c106 -15 234 -71 246 -108 2 -6 -21 -38 -51 -69 l-55 -57 -38
27 c-62 42 -122 60 -209 61 -86 1 -123 -10 -191 -56 -90 -60 -135 -157 -135
-289 0 -144 63 -254 178 -311 62 -30 75 -33 158 -32 60 1 108 7 145 20 l55 19
3 118 3 117 -96 0 -95 0 0 75 0 75 180 0 180 0 0 -243 0 -244 -27 -13 c-134
-62 -314 -91 -446 -72 -292 42 -466 305 -402 607 58 274 289 419 597 375z
m873 -25 c200 -43 327 -179 357 -382 39 -264 -118 -481 -388 -538 -47 -10
-132 -15 -266 -15 l-198 0 0 475 0 475 213 0 c148 0 233 -5 282 -15z"/>
<path d="M1500 1265 l0 -325 58 0 c98 0 225 20 277 44 69 31 106 65 140 128
27 49 30 61 30 153 0 83 -4 108 -23 150 -58 126 -164 175 -377 175 l-105 0 0
-325z"/>
</g>
</svg>
